<svg xmlns="http://www.w3.org/2000/svg" width="256" height="256" viewBox="0 0 100 100"><rect width="100" height="100" rx="20" fill="#d0021b"></rect><path fill="#fff" d="M58.72 80.61L66.37 77.44L66.37 51.82L33.63 51.82L33.63 77.44L41.72 80.61L41.72 82.41L17.41 82.41L17.41 80.61L25.06 77.44L25.06 22.56L16.98 19.39L16.98 17.59L41.28 17.59L41.28 19.39L33.63 22.56L33.63 47.12L66.37 47.12L66.37 22.56L58.28 19.39L58.28 17.59L81.66 17.59L81.66 19.22L74.94 22.56L74.94 77.44L83.02 80.61L83.02 82.41L58.72 82.41L58.72 80.61Z"></path></svg>